<?xml version="1.0" encoding="UTF-8" standalone="no"?>
<!-- Created with Inkscape (http://www.inkscape.org/) -->
<svg xmlns:dc="http://purl.org/dc/elements/1.1/" xmlns:cc="http://creativecommons.org/ns#" xmlns:rdf="http://www.w3.org/1999/02/22-rdf-syntax-ns#" xmlns:svg="http://www.w3.org/2000/svg" xmlns="http://www.w3.org/2000/svg" version="1.1" width="100%" height="100%" viewBox="0 0 47.5 47.5" id="svg2" xml:space="preserve"><metadata id="metadata3051"><rdf:RDF><cc:Work rdf:about=""><dc:format>image/svg+xml</dc:format><dc:type rdf:resource="http://purl.org/dc/dcmitype/StillImage"/><dc:title/></cc:Work></rdf:RDF></metadata><defs id="defs6"><clipPath id="clipPath18"><path d="M 0,38 38,38 38,0 0,0 0,38 z" id="path20"/></clipPath></defs><g transform="matrix(1.25,0,0,-1.25,0,47.5)" id="g12" style="fill:#cc0000;fill-opacity:1"><g id="g14" style="fill:#cc0000;fill-opacity:1"><g clip-path="url(#clipPath18)" id="g16" style="fill:#cc0000;fill-opacity:1"><g transform="translate(37,5)" id="g22" style="fill:#cc0000;fill-opacity:1"><path d="m -32,32 c -2.209,0 -4,-1.791 -4,-4 l 0,-28 c 0,-2.209 1.791,-4 4,-4 l 28,0 c 2.209,0 4,1.791 4,4 l 0,28 c 0,2.209 -1.791,4 -4,4 l -28,0 z" id="path3837" style="fill:#cc0000;fill-opacity:1;fill-rule:nonzero;stroke:none"/><path d="m -28,26.5 c 0.64,0 1.262,-0.2365 1.75,-0.725 l 8.25,-8.25 8.225,8.25 c 0.977,0.977 2.574,0.977 3.55,0 0.977,-0.976 0.977,-2.574 0,-3.55 L -14.475,14 -6.225,5.75 c 0.977,-0.976 0.977,-2.548 0,-3.525 C -6.713,1.737 -7.361,1.5 -8,1.5 -8.64,1.5 -9.287,1.737 -9.775,2.225 L -18,10.45 -26.275,2.2 c -0.488,-0.489 -1.11,-0.725 -1.75,-0.725 -0.639,0 -1.287,0.236 -1.775,0.725 -0.977,0.976 -0.977,2.548 0,3.525 l 8.25,8.275 -8.225,8.225 c -0.976,0.976 -0.976,2.574 0,3.55 0.488,0.4885 1.135,0.725 1.775,0.725 z" id="path24" style="fill:#ffffff;fill-opacity:1;fill-rule:nonzero;stroke:none"/></g><g transform="translate(22.5293,18.9937)" id="g26" style="fill:#cc0000;fill-opacity:1"/></g></g></g></svg>